HIERARCHY
ROOT Hips
{
	OFFSET -0.001795 -0.223333 0.028219
	CHANNELS 6 Xposition Yposition Zposition Zrotation Yrotation Xrotation 
	JOINT LeftUpLeg
	{
		OFFSET 0.069520 -0.091406 -0.006815
		CHANNELS 3 Zrotation Yrotation Xrotation
		JOINT LeftLeg
		{
			OFFSET 0.034277 -0.375199 -0.004496
			CHANNELS 3 Zrotation Yrotation Xrotation
			JOINT LeftFoot
			{
				OFFSET -0.013596 -0.397961 -0.043693
				CHANNELS 3 Zrotation Yrotation Xrotation
				JOINT LeftToe
				{
					OFFSET 0.026358 -0.055791 0.119288
					CHANNELS 3 Zrotation Yrotation Xrotation
					End Site
					{
						OFFSET 0.000000 0.000000 0.000000
					}
				}
			}
		}
	}
	JOINT RightUpLeg
	{
		OFFSET -0.067670 -0.090522 -0.004320
		CHANNELS 3 Zrotation Yrotation Xrotation
		JOINT RightLeg
		{
			OFFSET -0.038290 -0.382569 -0.008850
			CHANNELS 3 Zrotation Yrotation Xrotation
			JOINT RightFoot
			{
				OFFSET 0.015774 -0.398415 -0.042312
				CHANNELS 3 Zrotation Yrotation Xrotation
				JOINT RightToe
				{
					OFFSET -0.025372 -0.048144 0.123348
					CHANNELS 3 Zrotation Yrotation Xrotation
					End Site
					{
						OFFSET 0.000000 0.000000 0.000000
					}
				}
			}
		}
	}
	JOINT Spine
	{
		OFFSET -0.002533 0.108963 -0.026696
		CHANNELS 3 Zrotation Yrotation Xrotation
		JOINT Spine1
		{
			OFFSET 0.005487 0.135180 0.001092
			CHANNELS 3 Zrotation Yrotation Xrotation
			JOINT Spine2
			{
				OFFSET 0.001457 0.052922 0.025425
				CHANNELS 3 Zrotation Yrotation Xrotation
				JOINT Neck
				{
					OFFSET -0.002778 0.213870 -0.042857
					CHANNELS 3 Zrotation Yrotation Xrotation
					JOINT Head
					{
						OFFSET 0.005152 0.064970 0.051349
						CHANNELS 3 Zrotation Yrotation Xrotation
						End Site
						{
							OFFSET 0.000000 0.000000 0.000000
						}
					}
				}
				JOINT LeftShoulder
				{
					OFFSET 0.078845 0.121749 -0.034090
					CHANNELS 3 Zrotation Yrotation Xrotation
					JOINT LeftArm
					{
						OFFSET 0.090977 0.030469 -0.008868
						CHANNELS 3 Zrotation Yrotation Xrotation
						JOINT LeftForeArm
						{
							OFFSET 0.259612 -0.012772 -0.027456
							CHANNELS 3 Zrotation Yrotation Xrotation
							JOINT LeftHand
							{
								OFFSET 0.249234 0.008986 -0.001171
								CHANNELS 3 Zrotation Yrotation Xrotation
								End Site
								{
									OFFSET 0.000000 0.000000 0.000000
								}
							}
						}
					}
				}
				JOINT RightShoulder
				{
					OFFSET -0.081759 0.118833 -0.038615
					CHANNELS 3 Zrotation Yrotation Xrotation
					JOINT RightArm
					{
						OFFSET -0.096012 0.032551 -0.009143
						CHANNELS 3 Zrotation Yrotation Xrotation
						JOINT RightForeArm
						{
							OFFSET -0.253742 -0.013329 -0.021401
							CHANNELS 3 Zrotation Yrotation Xrotation
							JOINT RightHand
							{
								OFFSET -0.255298 0.007772 -0.005559
								CHANNELS 3 Zrotation Yrotation Xrotation
								End Site
								{
									OFFSET 0.000000 0.000000 0.000000
								}
							}
						}
					}
				}
			}
		}
	}
}
MOTION
Frames: 16
Frame Time: 0.050000
0.534249 0.906504 -4.192609 -0.766547 -21.418580 -6.216088 11.495255 0.877112 -5.346993 -9.786098 6.870853 34.801547 4.616940 9.519118 -5.998815 0.000000 0.000000 0.000000 -8.240505 1.531172 -19.121037 9.007268 -0.216372 21.775055 -5.657766 -16.277948 7.575683 0.000000 0.000000 0.000000 5.104638 -0.728150 28.394047 -8.784081 2.803610 -16.584915 -5.084326 10.128981 24.957068 13.140963 -5.541243 -29.028030 0.000000 0.000000 0.000000 -11.561810 -29.271947 12.878380 -36.765953 -43.617641 7.179042 22.603698 -50.428660 -8.185250 0.000000 0.000000 0.000000 23.867303 17.143283 8.104636 48.717119 48.889566 14.289129 -12.435638 40.013390 -2.586079 0.000000 0.000000 0.000000 
0.546191 0.890881 -4.231793 -1.747061 -20.103686 -7.914899 10.821052 0.770713 -4.585953 -5.632395 4.747528 36.755769 3.807543 6.916548 -10.604957 0.000000 0.000000 0.000000 -7.139886 1.729608 -20.697803 9.914784 -0.437499 23.896550 -7.823604 -20.166934 7.428981 0.000000 0.000000 0.000000 4.781717 -0.707172 30.153589 -7.439207 2.408645 -15.955152 -5.762452 10.069873 24.931122 14.873560 -6.310679 -29.481641 0.000000 0.000000 0.000000 -9.393368 -30.988660 12.825724 -32.745671 -44.415571 6.273692 32.185052 -54.641362 -14.295848 0.000000 0.000000 0.000000 23.709233 17.092348 8.334448 44.749698 50.412366 13.365728 -17.617261 43.874672 -4.853235 0.000000 0.000000 0.000000 
0.560606 0.879937 -4.281153 -2.222637 -18.383677 -10.020929 10.876929 0.808760 -6.893008 -4.423410 4.260608 40.417592 3.995856 6.761067 -11.752852 0.000000 0.000000 0.000000 -7.435246 1.726781 -22.000704 10.405127 -0.763003 22.722311 -7.304774 -19.672678 10.194617 0.000000 0.000000 0.000000 2.962317 -0.258635 34.347092 -6.983286 2.334317 -15.610989 -4.820605 9.141347 24.872565 16.022740 -6.622111 -30.745430 0.000000 0.000000 0.000000 -9.165041 -32.375997 13.160701 -27.252990 -45.293806 4.940809 43.709364 -55.898831 -21.515244 0.000000 0.000000 0.000000 22.202113 16.304145 7.810060 44.051244 51.276689 13.530791 -25.897350 47.795473 -8.928239 0.000000 0.000000 0.000000 
0.573696 0.875335 -4.331645 -2.507840 -19.261317 -10.727001 11.686458 1.149083 -11.244906 -4.408778 4.798670 42.942609 3.997652 6.888147 -10.376628 0.000000 0.000000 0.000000 -8.661043 1.767998 -23.681647 13.679713 -1.472443 21.761573 -7.066576 -19.367971 10.390783 0.000000 0.000000 0.000000 1.397791 0.452386 36.847647 -6.485933 2.117032 -16.262376 -4.022163 9.014452 26.047945 15.255945 -6.101827 -31.708251 0.000000 0.000000 0.000000 -10.085661 -32.888622 13.677611 -24.243098 -44.179056 3.795322 53.967805 -55.928700 -27.596554 0.000000 0.000000 0.000000 19.676030 16.141200 7.322066 46.968757 51.515928 14.861537 -33.970160 52.609188 -13.910999 0.000000 0.000000 0.000000 
0.582589 0.878095 -4.374901 -2.830395 -19.898450 -9.944781 12.302623 1.488176 -14.642414 -4.934768 4.944929 41.481304 4.057320 7.685697 -6.260791 0.000000 0.000000 0.000000 -9.225065 1.885851 -25.083246 16.813920 -2.230404 27.608401 -8.510870 -21.489311 7.200964 0.000000 0.000000 0.000000 0.772963 0.676263 36.462159 -6.113588 2.003771 -14.914468 -4.120523 8.137569 25.885987 14.651100 -5.699898 -32.635773 0.000000 0.000000 0.000000 -9.962178 -31.991913 13.482773 -24.246864 -41.857553 3.363805 61.682742 -55.861351 -31.970924 0.000000 0.000000 0.000000 20.530699 16.270626 7.168028 49.520974 50.183606 15.299677 -38.550051 59.394603 -18.906390 0.000000 0.000000 0.000000 
0.586200 0.883744 -4.409462 -3.234658 -22.170629 -9.800387 13.379338 1.954406 -15.380126 -5.580160 5.342308 39.173366 4.082972 8.085319 -4.458110 0.000000 0.000000 0.000000 -8.449810 1.787631 -22.072946 17.669434 -2.102348 36.586267 -10.062477 -23.765619 1.582466 0.000000 0.000000 0.000000 0.593686 0.880057 34.936730 -6.959373 2.248228 -14.927225 -3.239973 9.036189 27.252364 12.791741 -4.787960 -33.030666 0.000000 0.000000 0.000000 -9.956716 -29.420529 12.508536 -25.556638 -41.683935 3.535724 65.726735 -56.726979 -34.792157 0.000000 0.000000 0.000000 20.807521 16.440985 7.158300 51.756760 48.305571 15.157538 -43.919551 64.263385 -24.232154 0.000000 0.000000 0.000000 
0.585749 0.883791 -4.439440 -2.482197 -24.064962 -9.768410 13.865944 2.313379 -16.279265 -5.861920 5.539359 37.482331 4.532537 9.351445 -0.885324 0.000000 0.000000 0.000000 -9.728710 1.260511 -16.840232 16.813594 -0.908358 47.060192 -11.587099 -26.605516 -1.493658 0.000000 0.000000 0.000000 -0.124772 1.162805 33.386067 -7.535028 2.397309 -14.979494 -2.704060 10.112900 26.752263 12.002181 -4.470114 -32.198185 0.000000 0.000000 0.000000 -10.169111 -26.907629 11.557994 -29.417010 -40.482615 4.191070 74.586132 -59.375235 -42.357247 0.000000 0.000000 0.000000 20.157976 16.588445 7.117339 52.564892 47.787982 15.270671 -47.098206 64.336363 -26.374076 0.000000 0.000000 0.000000 
0.582433 0.875292 -4.469884 -1.606610 -24.945753 -10.975604 14.139046 2.542204 -16.629544 -6.659403 6.234272 37.798818 4.982957 10.230349 -1.360379 0.000000 0.000000 0.000000 -12.117533 0.863402 -8.927253 14.663484 1.272291 56.128649 -11.931823 -26.980399 2.028670 0.000000 0.000000 0.000000 -0.107786 1.075303 31.550241 -9.230429 3.037168 -14.669583 -1.252107 11.247453 26.880450 12.005035 -4.314952 -32.748783 0.000000 0.000000 0.000000 -10.608526 -24.713469 10.661252 -30.863588 -41.526490 4.762728 80.269955 -60.499398 -47.424601 0.000000 0.000000 0.000000 19.884151 16.461001 7.103684 50.732931 48.017043 14.660070 -48.421844 65.490109 -27.901850 0.000000 0.000000 0.000000 
0.577450 0.857215 -4.505708 -0.336479 -26.065431 -12.217581 15.328982 3.387182 -19.321855 -7.590296 7.213371 39.215263 5.021213 10.225716 -0.586079 0.000000 0.000000 0.000000 -16.608574 1.377318 -1.765453 12.380297 3.725127 62.228025 -9.695497 -22.556702 5.159789 0.000000 0.000000 0.000000 -0.743350 1.154823 29.589831 -8.926808 2.921608 -14.264911 -0.993349 14.952019 26.396711 12.685096 -4.393160 -31.788317 0.000000 0.000000 0.000000 -10.526696 -25.914388 10.726222 -29.667031 -41.967731 4.543301 86.378893 -58.651706 -51.608578 0.000000 0.000000 0.000000 18.547881 16.942958 7.866214 49.208109 50.872103 15.678076 -57.570179 62.820883 -31.923158 0.000000 0.000000 0.000000 
0.571638 0.839376 -4.549904 1.415223 -27.706024 -13.349271 17.387640 4.802759 -22.185841 -9.249821 8.631536 40.192253 5.109563 10.399328 2.799779 0.000000 0.000000 0.000000 -20.800254 2.794139 4.278051 7.801778 7.407502 63.547785 -4.998088 -14.841210 10.727655 0.000000 0.000000 0.000000 -0.584161 1.216852 28.984723 -9.916748 3.199216 -15.125809 -0.506569 17.231673 26.489016 12.832916 -3.837345 -34.217365 0.000000 0.000000 0.000000 -11.455862 -25.539637 10.547224 -28.435863 -43.499968 4.558971 89.957761 -55.372447 -51.916194 0.000000 0.000000 0.000000 16.619551 19.543246 9.080772 47.177280 57.477116 18.392177 -58.040749 56.316969 -28.250664 0.000000 0.000000 0.000000 
0.563756 0.824784 -4.604858 3.000099 -29.426434 -14.657394 18.583680 5.782807 -23.368887 -9.910396 8.153531 36.225798 6.237663 12.298388 7.287285 0.000000 0.000000 0.000000 -23.474720 5.340257 13.034116 3.215670 7.773172 53.926371 -2.450133 -10.878677 11.592285 0.000000 0.000000 0.000000 -0.262188 1.043723 26.801968 -11.285336 3.898210 -13.175438 -0.107588 20.089128 25.754777 10.869400 -2.561409 -33.760671 0.000000 0.000000 0.000000 -11.773094 -27.403528 11.081869 -26.568325 -42.860920 3.997903 91.077177 -52.560805 -51.036151 0.000000 0.000000 0.000000 15.076875 21.739570 10.143647 38.998530 61.744355 16.455269 -59.527104 49.679122 -25.280596 0.000000 0.000000 0.000000 
0.552860 0.816933 -4.670942 3.355943 -29.973823 -13.524832 19.245771 6.535276 -25.230393 -8.407255 5.779770 29.774567 7.350292 13.570015 15.583076 0.000000 0.000000 0.000000 -22.267666 6.626506 18.958682 1.253438 5.726977 42.746074 -2.720149 -10.985116 10.384172 0.000000 0.000000 0.000000 0.431391 0.859298 25.940764 -11.065698 3.801508 -12.853407 -0.154590 23.429420 24.485091 12.915717 -2.973104 -34.626259 0.000000 0.000000 0.000000 -12.342066 -29.038698 11.383926 -25.773022 -43.332161 3.903091 89.453672 -50.969633 -49.286561 0.000000 0.000000 0.000000 12.070531 21.169600 9.725131 34.139519 64.698345 15.432930 -56.792755 44.672583 -20.831294 0.000000 0.000000 0.000000 
0.540699 0.813927 -4.743973 4.162673 -31.643634 -12.477062 20.920612 7.261909 -24.269668 -6.063040 2.676174 17.451718 9.324072 15.258683 24.560023 0.000000 0.000000 0.000000 -21.355905 6.467676 18.269608 2.764037 4.009430 37.226572 -5.044054 -11.613679 2.070142 0.000000 0.000000 0.000000 0.554216 1.164289 27.535245 -11.053248 3.643498 -13.930889 0.028450 24.503064 23.803380 10.894920 -1.495084 -37.576782 0.000000 0.000000 0.000000 -13.468932 -27.085911 10.600441 -27.827652 -43.331563 4.501363 87.094227 -51.765350 -48.242402 0.000000 0.000000 0.000000 9.415634 20.015599 8.624504 37.633063 65.330731 18.090849 -51.555903 44.332289 -18.276361 0.000000 0.000000 0.000000 
0.531334 0.817488 -4.813871 3.266218 -30.042930 -11.018862 20.909686 7.045517 -24.895790 -2.038530 0.510224 7.359425 7.280028 12.778957 29.851451 0.000000 0.000000 0.000000 -18.514516 4.701997 16.137665 6.169426 2.416568 35.818889 -10.617865 -20.658633 -3.443052 0.000000 0.000000 0.000000 2.968208 0.631821 28.925860 -10.562012 3.564568 -13.316143 -3.435321 21.394881 22.545588 14.057985 -3.206024 -37.475515 0.000000 0.000000 0.000000 -11.850190 -24.310969 9.408678 -30.013728 -43.065482 5.041999 83.126871 -55.145868 -47.832849 0.000000 0.000000 0.000000 11.671472 18.843749 8.395656 41.481712 63.775290 19.316600 -46.666753 48.727848 -18.221810 0.000000 0.000000 0.000000 
0.526050 0.826274 -4.870553 3.107275 -27.940797 -10.453455 19.949618 6.312611 -25.090099 -4.332550 0.903657 5.248739 8.259690 14.200811 24.864428 0.000000 0.000000 0.000000 -16.431221 3.202355 12.702860 8.692047 1.707756 37.920185 -12.273047 -24.298284 -6.384983 0.000000 0.000000 0.000000 5.107882 0.024426 29.791922 -11.483384 3.807958 -15.264987 -2.560573 18.993772 25.101222 13.179272 -3.122752 -37.372697 0.000000 0.000000 0.000000 -13.483156 -25.690752 10.566066 -29.304438 -42.877638 4.700329 74.700547 -55.058017 -41.121431 0.000000 0.000000 0.000000 13.999006 17.560949 8.066947 42.494104 58.690584 16.833667 -39.889513 53.236578 -16.753906 0.000000 0.000000 0.000000 
0.523140 0.841169 -4.912554 2.972252 -26.434228 -9.524997 17.755175 5.298213 -25.787545 -6.653220 1.787155 10.053926 10.524942 17.878114 17.010568 0.000000 0.000000 0.000000 -14.913043 2.450778 10.941466 9.992103 0.854984 35.736897 -12.947630 -25.913794 -7.814207 0.000000 0.000000 0.000000 5.834167 -0.293716 29.743912 -10.346187 3.345259 -15.882384 -2.757902 17.184987 26.173963 13.369548 -3.732411 -35.609921 0.000000 0.000000 0.000000 -13.347702 -27.197454 11.500532 -29.718914 -43.354171 4.872909 64.472941 -52.382389 -32.056634 0.000000 0.000000 0.000000 16.212816 17.738042 8.364237 39.413347 53.716770 12.771476 -29.143690 54.164215 -11.781831 0.000000 0.000000 0.000000 
